<?xml version="1.0" standalone="no"?>
<!DOCTYPE svg PUBLIC "-//W3C//DTD SVG 20010904//EN"
 "http://www.w3.org/TR/2001/REC-SVG-20010904/DTD/svg10.dtd">
<svg version="1.0" xmlns="http://www.w3.org/2000/svg"
 width="512.000000pt" height="512.000000pt" viewBox="0 0 512.000000 512.000000"
 preserveAspectRatio="xMidYMid meet">

<g transform="translate(0.000000,512.000000) scale(0.100000,-0.100000)"
fill="#000000" stroke="none">
<path d="M2440 5095 c-8 -2 -49 -9 -90 -15 -361 -59 -704 -316 -868 -651 -289
-593 -52 -1305 534 -1605 173 -88 338 -127 539 -127 150 0 221 9 355 50 502
150 850 620 850 1148 0 565 -388 1050 -940 1176 -78 18 -338 35 -380 24z m351
-309 c168 -42 310 -127 435 -258 176 -186 264 -424 251 -678 -7 -135 -35 -240
-97 -365 -92 -184 -227 -318 -415 -409 -168 -82 -209 -91 -410 -91 -159 1
-175 3 -255 29 -258 86 -446 243 -560 471 -62 123 -90 228 -97 365 -13 254 75
492 251 678 235 247 566 342 897 258z"/>
<path d="M1210 2325 c-341 -53 -630 -294 -751 -626 -56 -154 -60 -210 -57
-931 l3 -653 24 -34 c47 -66 -110 -61 2133 -61 1925 0 2045 1 2077 18 19 9 44
30 55 45 21 28 21 39 24 680 2 431 -1 680 -8 736 -57 432 -402 777 -831 831
-46 5 -251 10 -457 10 -407 0 -417 -1 -462 -57 -14 -17 -108 -188 -210 -381
-102 -194 -187 -352 -190 -352 -3 0 -88 158 -190 352 -102 193 -196 364 -210
381 -46 56 -54 57 -477 56 -269 -1 -414 -5 -473 -14z m997 -720 c142 -267 245
-451 263 -467 52 -47 124 -49 177 -4 16 14 122 202 263 467 l236 444 352 3
352 2 -25 -66 c-14 -36 -46 -110 -71 -165 l-47 -99 -46 0 c-198 0 -452 -167
-629 -413 -70 -97 -141 -221 -148 -257 -9 -41 35 -260 58 -292 54 -77 172 -77
226 -1 28 41 31 74 15 165 l-13 81 44 71 c145 231 377 401 486 356 114 -47
118 -327 8 -603 l-33 -82 -74 -36 c-101 -48 -131 -83 -131 -154 0 -46 4 -59
31 -89 38 -44 88 -60 143 -45 22 6 85 33 139 60 l99 50 48 102 c89 188 128
336 137 523 4 95 2 138 -12 200 -17 78 -66 194 -90 214 -10 9 -1 37 45 133 32
67 68 150 80 184 25 71 25 71 102 6 90 -74 157 -171 205 -295 l28 -73 3 -613
3 -612 -1873 2 -1873 3 0 585 c0 581 0 586 23 665 41 141 123 266 229 349 58
46 151 101 158 94 3 -2 16 -49 30 -103 32 -122 96 -288 164 -423 l52 -103 -21
-29 c-129 -181 -95 -425 77 -566 77 -63 149 -88 258 -88 69 0 103 5 147 23
283 111 357 480 136 687 -74 70 -160 106 -268 112 l-88 5 -55 116 c-31 64 -66
143 -78 176 -21 57 -69 222 -69 238 0 4 133 6 297 5 l296 -3 234 -440z m-486
-398 c71 -47 86 -134 33 -196 -70 -83 -209 -44 -230 64 -13 69 59 155 131 155
18 0 47 -10 66 -23z"/>
</g>
</svg>
