<?xml version="1.0" standalone="no"?>
<!DOCTYPE svg PUBLIC "-//W3C//DTD SVG 20010904//EN"
 "http://www.w3.org/TR/2001/REC-SVG-20010904/DTD/svg10.dtd">
<svg version="1.0" xmlns="http://www.w3.org/2000/svg"
 width="512.000000pt" height="512.000000pt" viewBox="0 0 512.000000 512.000000"
 preserveAspectRatio="xMidYMid meet">

<g transform="translate(0.000000,512.000000) scale(0.100000,-0.100000)"
fill="#000000" stroke="none">
<path d="M1140 4784 c-234 -50 -436 -254 -485 -489 -22 -105 -22 -3365 0
-3470 50 -237 252 -439 491 -490 103 -22 1765 -22 1869 0 239 50 441 254 491
495 38 183 -14 285 -146 285 -99 0 -146 -50 -161 -170 -16 -130 -68 -210 -171
-266 l-63 -34 -885 0 -885 0 -63 34 c-69 37 -109 79 -144 151 l-23 45 0 1685
0 1685 25 50 c31 64 91 124 155 155 l50 25 885 0 885 0 45 -23 c112 -55 172
-143 189 -276 15 -121 62 -171 161 -171 132 0 184 102 146 285 -50 241 -252
445 -491 495 -101 21 -1776 21 -1875 -1z"/>
<path d="M1855 4306 c-97 -43 -124 -171 -54 -251 45 -51 78 -57 301 -53 215 3
223 5 272 72 29 39 29 133 0 172 -50 67 -55 69 -282 71 -157 2 -214 0 -237
-11z"/>
<path d="M1845 3671 c-90 -22 -172 -90 -215 -176 l-25 -50 0 -885 0 -885 23
-45 c35 -72 76 -114 144 -150 60 -32 69 -34 186 -38 l122 -4 0 -175 c0 -195 7
-225 65 -268 38 -30 82 -40 132 -30 33 6 71 39 273 240 l235 234 730 3 730 3
63 34 c70 38 100 69 140 145 l27 51 0 885 0 885 -34 63 c-37 69 -79 109 -151
144 l-45 23 -1185 2 c-652 0 -1198 -2 -1215 -6z m2315 -1111 l0 -800 -734 0
c-489 0 -744 -4 -763 -11 -15 -5 -80 -62 -144 -126 l-117 -115 -4 75 c-4 81
-18 111 -72 151 -25 19 -44 21 -217 24 l-189 3 0 800 0 799 1120 0 1120 0 0
-800z"/>
<path d="M2975 3026 c-73 -33 -95 -83 -95 -211 l0 -93 -109 -4 c-118 -3 -141
-12 -185 -72 -29 -39 -29 -133 0 -172 44 -60 67 -69 184 -72 l108 -4 4 -108
c3 -117 12 -140 72 -184 39 -29 133 -29 172 0 60 44 69 67 72 184 l4 108 108
4 c91 2 113 6 136 24 53 39 69 71 69 134 0 63 -16 95 -69 134 -23 18 -45 22
-136 24 l-108 4 -4 108 c-3 117 -12 140 -70 183 -34 25 -113 32 -153 13z"/>
</g>
</svg>
